<?xml version="1.0" encoding="UTF-8"?>
<!-- Generator: Adobe Illustrator 24.3.0, SVG Export Plug-In . SVG Version: 6.00 Build 0)  -->
<svg version="1.1" id="Layer_1" xmlns="http://www.w3.org/2000/svg" xmlns:xlink="http://www.w3.org/1999/xlink" x="0px" y="0px" viewBox="0 0 308.72 161.03" style="enable-background:new 0 0 308.72 161.03;" xml:space="preserve">
<path d="M38.76,55.59c0,0-7.96,15.05-7.96,28.08c0,0-0.72,30.69,30.98,30.69h4.34c0,0,6.37,2.03,116.09-30.69h-27.79l-1.45-34.45  l-13.03,34.45h-19.98L151.52,0h19.11l-8.69,24.03L182.5,0h60.22l-5.21,13.9h-20.55l-6.37,17.66h19.11l-6.08,15.63h-18.82  l-7.53,20.55h22.58l-1.74,6.08c0,0,81.93-21.13,90.61-23.45c0,0-233.5,110.65-271.71,110.65c0,0-36.9,0.23-36.9-29.88  C0.11,131.15-4.09,103.06,38.76,55.59z M173.81,77.88L201.8,2.22l-29.72,31.65L173.81,77.88z M128.07,0L97,83.67h19.3L147.57,0  H128.07z M41.61,83.67h19.3l13.9-36.48l-1.54,36.48h20.46L124.99,0h-19.11L91.6,36.96L93.91,0H73.26L41.61,83.67z M56.12,102.95  c0,0.74-0.19,1.43-0.55,2.07c-0.37,0.64-0.87,1.14-1.51,1.51c-0.64,0.37-1.33,0.55-2.07,0.55c-0.73,0-1.42-0.18-2.06-0.55  c-0.64-0.37-1.14-0.87-1.51-1.51c-0.37-0.64-0.55-1.33-0.55-2.07c0-0.74,0.19-1.43,0.55-2.07c0.37-0.64,0.87-1.14,1.51-1.51  c0.64-0.37,1.33-0.55,2.06-0.55c0.74,0,1.43,0.18,2.07,0.55c0.64,0.37,1.14,0.87,1.51,1.51C55.93,101.53,56.12,102.21,56.12,102.95z   M55.32,102.95c0-0.92-0.33-1.71-0.98-2.36c-0.65-0.65-1.43-0.98-2.35-0.98c-0.92,0-1.7,0.32-2.35,0.98  c-0.65,0.65-0.98,1.44-0.98,2.36c0,0.92,0.33,1.71,0.98,2.36c0.65,0.65,1.44,0.98,2.35,0.98c0.92,0,1.7-0.33,2.35-0.98  C54.99,104.66,55.32,103.87,55.32,102.95z M50.11,100.74h1.97c0.56,0,0.96,0.11,1.21,0.34c0.25,0.23,0.38,0.53,0.38,0.91  c0,0.3-0.09,0.55-0.29,0.77c-0.19,0.22-0.49,0.37-0.9,0.47c0.17,0.07,0.3,0.13,0.38,0.21c0.11,0.1,0.23,0.25,0.35,0.45  c0.01,0.02,0.25,0.44,0.72,1.28h-1.3c-0.42-0.84-0.71-1.34-0.85-1.51c-0.14-0.16-0.29-0.25-0.43-0.25c-0.03,0-0.08,0-0.13,0.02v1.74  h-1.09V100.74z M51.21,102.62h0.48c0.32,0,0.54-0.05,0.67-0.16c0.13-0.1,0.2-0.24,0.2-0.4c0-0.17-0.06-0.3-0.19-0.4  c-0.13-0.11-0.34-0.16-0.64-0.16h-0.52V102.62z M255.07,4.1c0,0.74-0.18,1.43-0.55,2.07c-0.37,0.64-0.87,1.14-1.51,1.51  c-0.64,0.37-1.33,0.55-2.07,0.55c-0.73,0-1.42-0.18-2.06-0.55c-0.64-0.37-1.14-0.87-1.51-1.51c-0.37-0.64-0.56-1.33-0.56-2.07  c0-0.74,0.19-1.43,0.56-2.07c0.37-0.64,0.87-1.14,1.51-1.51c0.64-0.37,1.33-0.55,2.06-0.55c0.74,0,1.43,0.18,2.07,0.55  c0.64,0.37,1.14,0.87,1.51,1.51C254.89,2.68,255.07,3.37,255.07,4.1z M254.27,4.1c0-0.92-0.33-1.71-0.97-2.36  c-0.65-0.65-1.44-0.98-2.36-0.98c-0.92,0-1.7,0.33-2.35,0.98c-0.65,0.65-0.97,1.44-0.97,2.36c0,0.92,0.32,1.71,0.97,2.36  c0.65,0.65,1.44,0.98,2.35,0.98c0.92,0,1.71-0.33,2.36-0.98C253.94,5.81,254.27,5.02,254.27,4.1z M249.06,1.89h1.97  c0.56,0,0.96,0.11,1.21,0.34c0.25,0.23,0.38,0.53,0.38,0.91c0,0.3-0.1,0.55-0.29,0.77c-0.19,0.22-0.49,0.37-0.9,0.47  c0.17,0.07,0.29,0.13,0.37,0.21c0.11,0.1,0.23,0.25,0.35,0.45c0.01,0.01,0.25,0.44,0.72,1.28h-1.3c-0.42-0.84-0.71-1.34-0.85-1.51  c-0.14-0.16-0.29-0.24-0.43-0.24c-0.03,0-0.08,0-0.13,0.01v1.74h-1.1V1.89z M250.16,3.77h0.48c0.32,0,0.54-0.05,0.68-0.16  c0.13-0.1,0.2-0.24,0.2-0.4c0-0.16-0.06-0.3-0.19-0.4c-0.13-0.1-0.34-0.15-0.64-0.15h-0.52V3.77z"/>
</svg>