<svg id="Layer_1" data-name="Layer 1" xmlns="http://www.w3.org/2000/svg" viewBox="0 0 170.36 56.69"><defs><style>.cls-1{fill:#020204;}</style></defs><title>asics_logo</title><path class="cls-1" d="M21.26,41.17c-3.23,0-4.79-2.48-4-5.36C19,29.85,29.73,21,37.07,21c5.36,0,5,4.79,1.81,8.88L37.15,31.8c-6.22,6.11-12,9.37-15.89,9.37M47.5,1C38.13,1,27.81,6.7,21.34,12.13l.51.74c10-7,24-11.63,27.85-4.76,2,3.63-1.42,11-6.27,16.74,1.16-2.55.4-7.46-6.37-7.46C25.8,17.39,3.64,32.3,3.64,47.56c0,6.11,4.24,10.1,11.22,10.1,18.7,0,44.06-30.65,44.06-46C58.92,6.18,55.79,1,47.5,1" transform="translate(-3.64 -0.96)"/><path class="cls-1" d="M71.57,41.17A3.2,3.2,0,0,1,69,40.1a3.15,3.15,0,0,1-.49-2.82,6,6,0,0,1,5.67-4.12h6l-2.15,8Zm17.29-24a8.84,8.84,0,0,0-6.5-3.06H71.43L69.57,21H79.88l1,.1a2.33,2.33,0,0,1,1.47.81,3.1,3.1,0,0,1,.18,2.61L82,26.35h-6.5c-5.59,0-13.38,4-15.12,10.49A8.79,8.79,0,0,0,62,44.93c1.67,2,4.81,3.17,8.21,3.17H83.85l3.59-13.4,2.64-9.84c1-3.88-.09-6.34-1.22-7.72" transform="translate(-3.64 -0.96)"/><path class="cls-1" d="M164,14.08A13.17,13.17,0,0,0,156,16.62a11,11,0,0,0-4.25,6.44c-1.61,6,3.1,8.9,6.9,11,2.72,1.47,5.07,2.74,4.56,4.62-.36,1.35-1,2.53-4.29,2.53H148.74l-1.86,6.93h11.3a12.86,12.86,0,0,0,8.08-2.37,12.48,12.48,0,0,0,4.32-7.1,7.8,7.8,0,0,0-1.56-7.5,20.63,20.63,0,0,0-5.58-3.88c-2.45-1.31-4.76-2.56-4.35-4.06A3,3,0,0,1,162.22,21h9.93L174,14.08Z" transform="translate(-3.64 -0.96)"/><path class="cls-1" d="M104.71,14.08a13.22,13.22,0,0,0-7.94,2.54,11,11,0,0,0-4.25,6.44c-1.6,6,3.12,8.9,6.91,11,2.72,1.47,5.07,2.74,4.56,4.62-.36,1.35-.95,2.53-4.3,2.53H89.49L87.63,48.1h11.3A12.86,12.86,0,0,0,107,45.73a12.53,12.53,0,0,0,4.32-7.1,7.8,7.8,0,0,0-1.56-7.5,20.53,20.53,0,0,0-5.59-3.88c-2.44-1.31-4.75-2.56-4.34-4.06A3,3,0,0,1,103,21h9.93l1.86-6.92Z" transform="translate(-3.64 -0.96)"/><polygon class="cls-1" points="116.49 13.12 107.63 47.13 115.11 47.13 123.97 13.12 116.49 13.12"/><path class="cls-1" d="M147.53,14.08c-13.17.05-20.07,8.83-22.26,17-2.6,9.7,2.56,17,12,17h6.32l1.85-6.93h-6.32c-3.53,0-8.39-2.78-6.43-10.08A14,14,0,0,1,146.12,21h4L152,14.08Z" transform="translate(-3.64 -0.96)"/></svg>